<?xml version="1.0" standalone="no"?>
<!DOCTYPE svg PUBLIC "-//W3C//DTD SVG 20010904//EN"
 "http://www.w3.org/TR/2001/REC-SVG-20010904/DTD/svg10.dtd">
<svg version="1.0" xmlns="http://www.w3.org/2000/svg"
 width="2000.000000pt" height="1250.000000pt" viewBox="0 0 2000.000000 1250.000000"
 preserveAspectRatio="xMidYMid meet">

<g transform="translate(0.000000,1250.000000) scale(0.100000,-0.100000)"
fill="#ffffff" stroke="none">
<path d="M8872 10133 l3 -1888 65 -18 c181 -50 516 -137 527 -137 11 0 13 370
13 1965 l0 1965 -305 0 -305 0 2 -1887z"/>
<path d="M12970 11239 c-179 -314 -327 -575 -330 -579 -3 -5 -300 -34 -660
-64 -360 -31 -659 -58 -664 -59 -4 -2 192 -223 438 -492 245 -269 446 -495
446 -501 0 -7 -126 -387 -280 -846 -154 -458 -279 -839 -278 -845 2 -7 325
197 741 467 l737 479 566 -340 c311 -188 568 -339 571 -336 3 3 -9 130 -26
283 -17 152 -30 279 -28 280 5 5 315 -197 447 -291 297 -212 573 -463 709
-645 75 -99 141 -231 148 -294 7 -60 -24 -113 -96 -166 -369 -275 -1321 -371
-2556 -259 -2709 245 -6171 1395 -7955 2643 -255 178 -419 314 -610 505 -247
248 -361 420 -411 621 -155 620 848 956 2566 859 177 -10 586 -44 655 -54 23
-4 30 -2 20 4 -26 16 -513 79 -815 105 -459 41 -1030 46 -1337 12 -555 -61
-913 -192 -1111 -406 -118 -127 -167 -253 -167 -426 0 -310 191 -641 596
-1034 311 -302 783 -651 1319 -973 l190 -115 3 -656 2 -656 305 0 305 0 0 489
0 488 228 -114 c125 -62 333 -162 462 -222 l235 -108 3 -962 2 -961 305 0 305
0 0 831 c0 661 3 830 13 826 247 -100 877 -337 896 -337 8 0 11 -341 11 -1110
l0 -1110 305 0 305 0 0 1000 c0 625 4 1000 10 1000 5 0 80 -23 167 -50 134
-43 501 -153 678 -203 l50 -14 3 -412 2 -411 305 0 305 0 0 331 0 331 23 -6
c93 -25 547 -126 766 -170 980 -199 1879 -291 2590 -265 129 4 259 11 290 14
379 41 595 84 818 164 225 80 398 184 533 320 177 178 265 370 277 607 32 619
-508 1297 -1634 2050 -116 78 -230 152 -252 165 -23 12 -41 26 -41 29 0 4 168
152 373 330 204 177 373 325 374 328 2 4 -288 67 -644 140 -356 73 -651 136
-654 140 -4 4 -121 277 -259 607 -139 330 -256 603 -259 607 -4 4 -153 -249
-331 -563z"/>
<path d="M7340 10096 l0 -1304 183 -65 c203 -74 414 -147 422 -147 3 0 5 635
5 1410 l0 1410 -305 0 -305 0 0 -1304z"/>
<path d="M5800 10272 l0 -788 298 -147 c163 -81 301 -147 305 -147 4 0 7 421
7 935 l0 935 -305 0 -305 0 0 -788z"/>
<path d="M10390 10085 l0 -475 305 0 305 0 0 475 0 475 -305 0 -305 0 0 -475z"/>
<path d="M10392 8413 l3 -568 145 -33 c80 -18 216 -48 303 -66 l157 -34 0 634
0 634 -305 0 -305 0 2 -567z"/>
<path d="M775 4332 c-146 -49 -258 -134 -336 -254 -61 -95 -84 -181 -84 -313
0 -141 24 -222 95 -323 95 -135 220 -216 497 -321 252 -95 347 -150 383 -220
29 -58 27 -128 -6 -177 -33 -49 -46 -59 -114 -92 -48 -24 -66 -27 -150 -26
-152 1 -284 45 -418 140 l-64 47 -134 -134 c-101 -101 -134 -140 -134 -159 0
-20 17 -37 83 -83 171 -122 335 -178 570 -197 291 -23 495 38 652 195 118 118
165 232 165 400 0 313 -157 488 -580 645 -245 92 -353 153 -396 226 -62 106 2
243 135 289 58 19 190 19 266 0 69 -18 140 -55 194 -102 22 -18 44 -33 49 -33
10 0 274 274 279 288 5 15 -128 108 -212 148 -148 72 -214 84 -454 84 -198 0
-209 -2 -286 -28z"/>
<path d="M1980 4145 l0 -185 285 0 285 0 0 -855 0 -855 210 0 210 0 0 855 0
855 285 0 285 0 0 185 0 185 -780 0 -780 0 0 -185z"/>
<path d="M4271 4268 c-16 -35 -230 -488 -476 -1008 -246 -520 -453 -960 -461
-977 l-14 -33 227 0 228 1 96 207 96 207 498 0 498 0 96 -207 95 -208 224 0
c209 0 224 1 220 18 -3 9 -222 477 -488 1040 l-483 1022 -164 0 -164 0 -28
-62z m363 -899 l164 -354 -331 -3 c-181 -1 -332 -1 -334 2 -2 2 71 164 163
360 92 196 169 355 171 352 2 -2 77 -163 167 -357z"/>
<path d="M5850 3290 l0 -1040 205 0 205 0 0 415 0 415 73 0 c234 -1 359 -70
441 -245 19 -38 69 -186 112 -327 l79 -258 228 0 c126 0 227 3 225 8 -38 74
-80 180 -148 377 -128 372 -176 458 -291 524 l-47 27 56 29 c86 45 200 164
244 255 47 98 62 165 61 275 -1 224 -121 419 -314 514 -145 71 -147 71 -666
71 l-463 0 0 -1040z m838 706 c77 -35 153 -114 176 -182 21 -61 20 -157 -1
-220 -23 -68 -101 -144 -178 -174 -53 -20 -83 -24 -242 -28 l-183 -4 0 322 0
322 183 -4 c176 -3 184 -4 245 -32z"/>
<path d="M7540 4325 c0 -3 151 -468 335 -1035 184 -567 335 -1032 335 -1035 0
-3 82 -4 182 -3 l183 3 185 617 c102 339 188 619 191 622 3 3 89 -274 190
-617 l185 -622 182 -3 181 -2 36 112 c20 62 171 527 336 1034 164 506 299 924
299 928 0 3 -97 5 -216 4 l-216 -3 -219 -660 c-120 -363 -219 -657 -219 -653
0 8 -315 1129 -351 1251 l-20 67 -171 -2 -171 -3 -179 -630 c-98 -346 -181
-642 -186 -657 -6 -21 -50 105 -222 633 l-215 659 -217 0 c-120 0 -218 -2
-218 -5z"/>
<path d="M10620 3290 l0 -1040 690 0 690 0 0 180 0 180 -485 0 -485 0 0 280 0
280 480 0 480 0 0 165 0 165 -480 0 -480 0 0 245 0 245 485 0 485 0 0 170 0
170 -690 0 -690 0 0 -1040z"/>
<path d="M13126 4283 c-43 -86 -956 -2022 -956 -2028 0 -3 102 -4 226 -3 l226
3 97 207 96 208 496 0 496 0 96 -207 97 -208 226 -3 c213 -2 226 -1 220 15 -4
10 -224 478 -489 1040 l-482 1022 -162 1 -163 0 -24 -47z m363 -933 c83 -178
151 -328 151 -332 0 -4 -150 -8 -334 -8 l-334 0 135 288 c74 158 151 321 170
362 l35 75 13 -30 c7 -16 81 -176 164 -355z"/>
<path d="M14164 4308 c3 -13 183 -480 399 -1038 l394 -1015 189 -3 189 -2 390
1031 c215 567 392 1035 393 1040 2 6 -85 8 -224 7 l-228 -3 -260 -712 c-143
-392 -262 -711 -264 -708 -2 2 -122 323 -267 712 l-262 708 -227 3 -228 2 6
-22z"/>
<path d="M16380 3290 l0 -1040 690 0 690 0 0 180 0 180 -490 0 -490 0 0 280 0
280 480 0 480 0 0 165 0 165 -480 0 -480 0 0 245 0 245 490 0 490 0 0 170 0
170 -690 0 -690 0 0 -1040z"/>
<path d="M18110 3290 l0 -1040 200 0 200 0 0 415 0 415 78 0 c237 0 357 -67
441 -244 21 -44 74 -195 117 -333 l78 -253 233 0 c200 0 233 2 233 15 0 8 -6
15 -14 15 -19 0 -55 85 -156 376 -50 143 -105 288 -122 324 -36 74 -113 156
-174 186 l-41 20 66 34 c96 50 191 149 240 253 47 98 61 161 61 270 0 165 -53
292 -169 407 -87 87 -164 131 -277 160 -71 19 -112 20 -536 20 l-458 0 0
-1040z m842 702 c198 -97 250 -345 105 -494 -82 -84 -170 -108 -399 -108
l-148 0 0 321 0 321 188 -3 187 -4 67 -33z"/>
<path d="M15790 1589 c-118 -20 -232 -114 -260 -215 -16 -58 -9 -180 14 -226
40 -83 127 -145 284 -204 146 -56 202 -98 202 -156 0 -39 -45 -83 -99 -98 -69
-18 -186 11 -257 65 -18 14 -37 25 -41 25 -5 0 -41 -35 -81 -79 l-71 -78 44
-32 c63 -45 163 -90 218 -97 26 -4 47 -10 47 -15 0 -5 43 -9 95 -9 52 0 95 4
95 8 0 5 22 14 49 21 143 37 243 177 227 323 -14 142 -91 221 -288 299 -139
55 -197 88 -214 121 -18 34 -18 52 1 88 43 83 179 84 307 3 25 -17 28 -16 48
2 12 11 45 46 72 78 l50 57 -23 20 c-55 46 -163 89 -249 100 -94 11 -94 11
-170 -1z"/>
<path d="M9816 1575 c-127 -35 -259 -130 -327 -236 -178 -279 -73 -655 224
-799 45 -21 101 -42 125 -46 23 -4 42 -10 42 -15 0 -5 41 -9 90 -9 50 0 90 4
90 9 0 5 20 12 45 15 25 4 82 26 127 48 189 95 308 285 308 493 0 154 -53 278
-165 390 -76 77 -158 126 -250 150 -73 18 -241 19 -309 0z m245 -201 c153 -45
248 -163 257 -319 3 -66 0 -91 -19 -140 -31 -83 -121 -173 -204 -204 -169 -64
-358 12 -440 176 -27 51 -30 68 -30 148 0 78 4 97 28 147 46 94 125 160 232
194 55 17 112 17 176 -2z"/>
<path d="M3960 1050 c-135 -286 -246 -527 -248 -535 -3 -13 15 -15 113 -15
l116 0 50 105 50 105 255 -2 256 -3 47 -102 46 -103 118 0 c64 0 117 4 117 8
0 5 -112 244 -248 533 l-248 524 -89 3 -90 2 -245 -520z m500 -156 c0 -2 -74
-4 -165 -4 -91 0 -165 3 -165 8 0 4 37 86 82 183 l83 175 82 -179 c46 -98 83
-181 83 -183z"/>
<path d="M5372 1213 c4 -340 5 -361 26 -417 46 -122 122 -211 230 -265 33 -17
79 -33 101 -37 23 -4 41 -10 41 -15 0 -5 36 -9 80 -9 44 0 80 4 80 9 0 5 19
11 41 15 107 17 239 118 292 222 58 114 60 131 65 507 l4 347 -110 0 -111 0
-3 -337 c-3 -328 -4 -339 -26 -389 -55 -121 -178 -177 -309 -139 -45 13 -69
28 -105 65 -75 77 -78 98 -78 477 l0 323 -111 0 -110 0 3 -357z"/>
<path d="M6970 1035 l0 -535 255 0 c284 0 329 6 427 57 174 90 272 263 272
478 0 249 -136 449 -351 515 -58 18 -93 20 -334 20 l-269 0 0 -535z m541 334
c101 -48 165 -134 189 -256 24 -120 -27 -274 -114 -349 -63 -54 -132 -75 -273
-81 l-123 -6 0 362 0 363 133 -4 c117 -3 138 -6 188 -29z"/>
<path d="M8560 1035 l0 -535 105 0 105 0 0 535 0 535 -105 0 -105 0 0 -535z"/>
<path d="M11170 1035 l0 -535 365 0 365 0 0 105 0 105 -255 0 -255 0 0 430 0
430 -110 0 -110 0 0 -535z"/>
<path d="M12887 1543 c-39 -76 -487 -1030 -487 -1036 0 -4 53 -7 118 -7 l118
0 48 105 49 105 254 0 254 0 49 -105 50 -105 120 0 120 0 -18 37 c-10 21 -124
262 -253 535 l-234 498 -87 0 c-85 0 -88 -1 -101 -27z m187 -472 c42 -91 76
-168 76 -173 0 -4 -75 -8 -166 -8 -129 0 -165 3 -161 13 30 78 163 345 168
340 4 -5 41 -82 83 -172z"/>
<path d="M14150 1035 l0 -536 268 3 267 3 57 28 c175 86 231 291 122 448 -15
22 -39 47 -54 56 l-27 16 33 49 c43 63 57 118 51 194 -8 112 -70 203 -166 248
-42 19 -66 21 -298 24 l-253 3 0 -536z m431 349 c99 -59 99 -179 0 -238 -22
-13 -60 -20 -122 -24 l-89 -5 0 148 0 148 89 -5 c62 -4 100 -11 122 -24z m41
-440 c20 -12 42 -38 57 -67 21 -43 22 -53 12 -87 -13 -45 -57 -85 -109 -100
-20 -5 -76 -10 -124 -10 l-88 0 0 146 0 147 109 -5 c82 -4 118 -10 143 -24z"/>
<path d="M2540 985 l0 -105 335 0 335 0 0 105 0 105 -335 0 -335 0 0 -105z"/>
<path d="M16760 985 l0 -105 335 0 335 0 0 105 0 105 -335 0 -335 0 0 -105z"/>
</g>
</svg>
